# xmcd CD database file
#
# Track frame offsets:
#	150
#	5066
#	18344
#	31101
#	45057
#	60971
#	74186
#	87180
#	102264
#	112872
#	126350
#	145200
#	155776
#	168419
#	185529
#	205299
#	215685
#	245369
#	260524
#	273369
#	296541
#	313347
#	321829
#	334200
#	348110
#
# Disc length: 4694 seconds
#
# Revision: 0
# Processed by: cddbd v1.4PL0 Copyright (c) Steve Scherf et al.
# Submitted via: Feurio! 1.66 - http://www.feurio.com
#
DISCID=73125419
DTITLE=Various Artist - Belleville to Tulsa to San Antone
DYEAR=1900
DGENRE=Data
TTITLE0=Dillard Chandler - I Wish My Baby Was Born
TTITLE1=Waylon Jennings - Are You Sure Hank Done It This Way
TTITLE2=Commander Cody - Truck Driving Man
TTITLE3=Doug Sahm - Is Anybody Going to San Antone?
TTITLE4=Bob Dylan - Going, Going, Gone
TTITLE5=Soft Boys - I Wanna Destroy You
TTITLE6=Ralph Stanley - She's More to Be Pitied
TTITLE7=Ron Wood - Mysitifes Me
TTITLE8=Dale Hawkins - Susie Q
TTITLE9=Carter Family - John Hardy
TTITLE10=Flying Burrito Bros. - Sin City
TTITLE11=Del Reeves - Looking at the World Through a Windshield
TTITLE12=Louvin Brothers - The Great Atomic Power
TTITLE13=Big Star - Holocaust
TTITLE14=Leadbelly - John Hardy
TTITLE15=Merle Haggard - Movin' On
TTITLE16=Creedence Clearwater Revival - Effigy
TTITLE17=E.G. Ball - Warfare
TTITLE18=Gram Parsons - Blue Eyes
TTITLE19=Bob Dylan - Moonshiner
TTITLE20=Byrds - Tulsa County
TTITLE21=Frank Proffitt - Satan, Your Kingdom Must Come Down
TTITLE22=Del-Vetts - Last Time Around
TTITLE23=Carter Family - No Depression in Heaven
TTITLE24=Uncle Tupelo - WMBR
EXTD=
EXTT0=
EXTT1=
EXTT2=
EXTT3=
EXTT4=
EXTT5=
EXTT6=
EXTT7=
EXTT8=
EXTT9=
EXTT10=
EXTT11=
EXTT12=
EXTT13=
EXTT14=
EXTT15=
EXTT16=
EXTT17=
EXTT18=
EXTT19=
EXTT20=
EXTT21=
EXTT22=
EXTT23=
EXTT24=
PLAYORDER=
